<svg xmlns="http://www.w3.org/2000/svg" viewBox="0 0 16 16" width="16" height="16">
	<style>
		tspan { white-space:pre }
		.shp0 { fill: #ff5a60 } 
	</style>
	<path id="Icon" class="shp0" d="M11.32 10.45C11.03 10.15 10.55 10.15 10.26 10.45L9.26 11.45C7.3 10.34 5.66 8.7 4.55 6.74L5.62 5.67C5.91 5.38 5.91 4.9 5.62 4.61L3.21 2.2C2.92 1.91 2.44 1.91 2.15 2.2L0.61 3.74L0.62 3.75C0.07 4.19 -0.15 4.97 0.11 5.73C1.76 10.44 5.56 14.24 10.27 15.89C11 16.14 11.73 15.95 12.19 15.46L12.19 15.46L13.73 13.91C14.02 13.62 14.02 13.15 13.73 12.86L11.32 10.45ZM8.15 5.3C9.56 5.3 10.7 6.44 10.7 7.84C10.7 8.13 10.94 8.37 11.23 8.37C11.52 8.37 11.75 8.13 11.75 7.84C11.75 5.86 10.14 4.25 8.15 4.25C7.87 4.25 7.63 4.48 7.63 4.77C7.63 5.06 7.87 5.3 8.15 5.3ZM8.15 3.16C10.74 3.16 12.84 5.26 12.84 7.84C12.84 8.13 13.07 8.37 13.36 8.37C13.65 8.37 13.89 8.13 13.89 7.84C13.89 4.68 11.32 2.11 8.15 2.11C7.87 2.11 7.63 2.35 7.63 2.64C7.63 2.93 7.87 3.16 8.15 3.16ZM13.7 2.3C12.22 0.82 10.25 0 8.15 0C7.87 0 7.63 0.23 7.63 0.52C7.63 0.81 7.87 1.05 8.15 1.05C11.9 1.05 14.95 4.1 14.95 7.84C14.95 8.13 15.19 8.37 15.48 8.37C15.77 8.37 16 8.13 16 7.84C16 5.75 15.18 3.78 13.7 2.3Z" />
</svg>