<svg xmlns="http://www.w3.org/2000/svg" width="59" height="50" viewBox="0 0 59 50">
  <defs>
    <style>
      .cls-1 {
        fill: #ff5a60;
        fill-rule: evenodd;
      }
    </style>
  </defs>
  <path id="Forma_1" data-name="Forma 1" class="cls-1" d="M1354.45,6195.55a1.926,1.926,0,0,0-1.98-.31l-49.81,20.44a1.01,1.01,0,0,0-.54,1.3,0.976,0.976,0,0,0,1.28.55l47.58-19.52-23.6,28.31a1.009,1.009,0,0,0,.12,1.41,0.964,0.964,0,0,0,1.38-.12l23.96-28.74-3.2,16.35-3.23,21.92a0.972,0.972,0,0,1-.49.72,0.9,0.9,0,0,1-.83.04l-13.41-5.36-6.43-2.74a0.982,0.982,0,0,0-1.29.54,0.712,0.712,0,0,0-.04.21h-0.03l-3.19,12.54-4.59-16.28,23.9-18.1a1,1,0,0,0,.44-0.94,0.974,0.974,0,0,0-1.61-.66l-24.02,18.18-17.32-7.12a0.965,0.965,0,0,0-1.27.55,1,1,0,0,0,.53,1.3l17.41,7.16,4.64,16.48a1.945,1.945,0,0,0,1.88,1.43h0.03a1.882,1.882,0,0,0,1.27-.52,0.359,0.359,0,0,0,.1-0.07l9.51-9.88,12.74,5.14a2.822,2.822,0,0,0,2.53-.15,3,3,0,0,0,1.49-2.17l3.21-21.88,3.54-18.06A2.048,2.048,0,0,0,1354.45,6195.55Zm-31,44.68,2.08-8.14,3.25,1.39,0.84,0.34Z" transform="translate(-1296.16 -6195.09)"/>
</svg>
