<svg xmlns="http://www.w3.org/2000/svg" width="50.03" height="50" viewBox="0 0 50.03 50">
  <defs>
    <style>
      .cls-1 {
        fill: #ff5a60;
        fill-rule: evenodd;
      }
    </style>
  </defs>
  <path class="cls-1" d="M997.286,6232.3h0l-5.887-5.9a4.6,4.6,0,0,0-3.335-1.54,4.784,4.784,0,0,0-3.381,1.53l-3.6,3.58-0.263-.14c-0.179-.1-0.358-0.19-0.533-0.28l-0.287-.14c-0.391-.2-0.762-0.38-1.088-0.59a37.015,37.015,0,0,1-8.919-8.1,22.015,22.015,0,0,1-2.947-4.65l-0.121-.26,0.215-.2c0.787-.72,1.526-1.47,2.241-2.19l0.23-.23c0.156-.16.309-0.31,0.462-0.47l0.011-.01c0.143-.15.287-0.29,0.43-0.43a4.53,4.53,0,0,0,0-6.84l-2.972-2.96c-0.319-.32-0.649-0.65-0.959-0.98-0.623-.64-1.3-1.33-1.994-1.97a4.7,4.7,0,0,0-3.318-1.47,4.874,4.874,0,0,0-3.365,1.46l-3.658,3.69a7.428,7.428,0,0,0-2.21,4.72,18.345,18.345,0,0,0,1.348,7.76,45.536,45.536,0,0,0,8.13,13.53,50.14,50.14,0,0,0,16.658,13.02,26.1,26.1,0,0,0,9.281,2.74c0.213,0.01.44,0.02,0.649,0.02a7.694,7.694,0,0,0,5.867-2.5,0.343,0.343,0,0,1,.041-0.05h0a20.976,20.976,0,0,1,1.776-1.85l0.135-.13c0.564-.54.99-0.96,1.381-1.37a4.913,4.913,0,0,0,1.507-3.42A4.737,4.737,0,0,0,997.286,6232.3Zm-0.551,3.43c0,0.07,0,.13-0.011.2,0,0.02-.008.04-0.011,0.06a1.876,1.876,0,0,1-.032.19,0.483,0.483,0,0,1-.024.08c-0.015.06-.028,0.11-0.048,0.17-0.011.03-.026,0.06-0.039,0.1s-0.038.1-.061,0.15c-0.016.03-.036,0.06-0.054,0.1a1.142,1.142,0,0,1-.076.14c-0.02.04-.044,0.07-0.066,0.11s-0.059.09-.093,0.14c-0.019.03-.041,0.05-0.061,0.08-0.041.05-.082,0.11-0.128,0.16a0.488,0.488,0,0,0-.055.07c-0.052.05-.1,0.12-0.162,0.18l-0.172.18c-0.3.3-.6,0.6-0.908,0.9l-0.239.23a27.626,27.626,0,0,0-2.042,2.11,5.562,5.562,0,0,1-4.336,1.84c-0.17,0-.345,0-0.519-0.01a22.252,22.252,0,0,1-7.628-2.13c-0.3-.14-0.6-0.27-0.878-0.41a48.03,48.03,0,0,1-15.952-12.46,44.007,44.007,0,0,1-7.784-12.94,15.6,15.6,0,0,1-1.224-6.87,5.315,5.315,0,0,1,1.6-3.43l3.654-3.64a2.832,2.832,0,0,1,1.913-.88,2.708,2.708,0,0,1,1.848.86l0.033,0.04c0.683,0.63,1.356,1.32,1.933,1.92,0.16,0.16.322,0.32,0.486,0.49l0.082,0.09h0l0.45,0.45,2.921,2.92a2.434,2.434,0,0,1,0,3.88c-0.087.09-.173,0.17-0.258,0.26l-0.044.04c-0.208.21-.415,0.42-0.625,0.62q-0.179.2-.353,0.36c-0.116.12-.23,0.24-0.343,0.35-0.242.24-.478,0.48-0.712,0.71-0.134.13-.268,0.25-0.4,0.38-0.291.28-.584,0.55-0.886,0.82a0.157,0.157,0,0,1-.023.02h0a1.783,1.783,0,0,0-.475,2.05l0.03,0.09a18.417,18.417,0,0,0,.966,1.97q0.234,0.42.5,0.84a30.9,30.9,0,0,0,1.92,2.69l0.011,0.01q0.551,0.675,1.11,1.32c0.372,0.42.747,0.84,1.125,1.24q0.284,0.3.57,0.6c0.392,0.4.788,0.79,1.188,1.16a35.274,35.274,0,0,0,5.431,4.24c0.427,0.27.882,0.5,1.282,0.7,0.1,0.05.2,0.09,0.291,0.14,0.072,0.04.142,0.08,0.211,0.11,0.208,0.11.406,0.22,0.587,0.33a0.232,0.232,0,0,1,.07.04,0.121,0.121,0,0,0,.033.02,1.971,1.971,0,0,0,.88.23,1.886,1.886,0,0,0,1.345-.63l3.665-3.65a2.807,2.807,0,0,1,1.9-.92H988.2a0.141,0.141,0,0,0,.064.01,0.289,0.289,0,0,0,.092.01,0.127,0.127,0,0,0,.06.01,0.3,0.3,0,0,0,.091.02c0.021,0.01.042,0.01,0.063,0.02s0.055,0.01.081,0.02l0.069,0.03a0.185,0.185,0,0,1,.07.02l0.071,0.03,0.062,0.03,0.071,0.03,0.055,0.03a0.237,0.237,0,0,1,.07.04c0.017,0.01.034,0.01,0.05,0.02s0.047,0.03.07,0.05l0.044,0.03c0.023,0.01.045,0.03,0.068,0.04l0.038,0.03c0.021,0.02.041,0.03,0.061,0.05l0.039,0.03a0.185,0.185,0,0,1,.053.04l0.04,0.03a0.177,0.177,0,0,0,.045.04c0.014,0.01.027,0.03,0.04,0.04l0.037,0.03a0.169,0.169,0,0,0,.041.04c0.01,0.01.018,0.02,0.027,0.03s0.03,0.03.043,0.04,0.011,0.01.016,0.02,0.031,0.03.045,0.05l5.915,5.9a3.047,3.047,0,0,1,.889,1.47,1.938,1.938,0,0,1,.037.22,0.077,0.077,0,0,1,0,.02,1.807,1.807,0,0,1,.015.22C996.737,6235.7,996.735,6235.71,996.735,6235.73Zm-8.57-26.88a16.2,16.2,0,0,0-8.731-4.52c-0.057,0-.117-0.01-0.175-0.01a1.055,1.055,0,0,0-1.034.87,1.039,1.039,0,0,0,.176.79,1,1,0,0,0,.661.41,14.178,14.178,0,0,1,11.562,11.53,1.034,1.034,0,0,0,1.03.87,1.1,1.1,0,0,0,.16-0.02h0.037a1.044,1.044,0,0,0,.842-1.21A16.117,16.117,0,0,0,988.165,6208.85Zm13.845,8.28a27.166,27.166,0,0,0-22.157-22.11,1.409,1.409,0,0,0-.2-0.02,1.145,1.145,0,0,0-.667.21,1.222,1.222,0,0,0-.481.77,1.187,1.187,0,0,0,.972,1.36,24.751,24.751,0,0,1,20.214,20.17,1.17,1.17,0,0,0,1.163.97,1.275,1.275,0,0,0,.19-0.01l0.02-.01a1.113,1.113,0,0,0,.75-0.46,1.163,1.163,0,0,0,.2-0.87h0Z" transform="translate(-952 -6195)"/>
</svg>
