<svg xmlns="http://www.w3.org/2000/svg" viewBox="0 0 21 17" width="21" height="17">
	<style>
		tspan { white-space:pre }
		.shp0 { fill: #ff5a60 } 
	</style>
	<path id="Icon" class="shp0" d="M10.96 10.39L12.77 8.62L12.77 8.62L12.77 8.62L19.1 2.16C18.89 2.06 18.66 2 18.42 2L3.58 2C3.34 2 3.11 2.06 2.9 2.16L10.96 10.39ZM19.84 15.08C19.94 14.87 20 14.63 20 14.38L20 3.61C20 3.37 19.94 3.13 19.84 2.92L13.89 9L19.84 15.08ZM2.16 2.92C2.06 3.13 2 3.37 2 3.61L2 14.38C2 14.63 2.06 14.87 2.16 15.08L8.11 9L2.16 2.92ZM13.14 9.76L11.34 11.53C11.23 11.64 11.1 11.69 10.96 11.69C10.83 11.69 10.69 11.64 10.59 11.53L8.86 9.76L2.9 15.84C3.11 15.94 3.34 16 3.58 16L18.42 16C18.66 16 18.89 15.94 19.1 15.84L13.14 9.76Z" />
</svg>