<svg xmlns="http://www.w3.org/2000/svg" width="62.562" height="50.28" viewBox="0 0 62.562 50.28">
  <defs>
    <style>
      .cls-1 {
        fill: #ff5a60;
        fill-rule: evenodd;
      }
    </style>
  </defs>
  <path class="cls-1" d="M562.923,6218.38h-1.132a1.245,1.245,0,0,0,0,2.49h1.132A1.245,1.245,0,0,0,562.923,6218.38Zm11.951-9.66a1.236,1.236,0,0,0,1.222-1.25v-1.15a1.222,1.222,0,1,0-2.444,0v1.15A1.236,1.236,0,0,0,574.874,6208.72Zm-0.03,21.84a1.234,1.234,0,0,0-1.222,1.24v1.16a1.222,1.222,0,1,0,2.444,0v-1.16A1.234,1.234,0,0,0,574.844,6230.56Zm-36.654-4.48a1.224,1.224,0,0,0-.864.36,1.273,1.273,0,0,0,0,1.77,1.218,1.218,0,0,0,1.729,0,1.273,1.273,0,0,0,0-1.77A1.224,1.224,0,0,0,538.19,6226.08Zm53.264,9.23a1.218,1.218,0,0,0-.864.36,1.258,1.258,0,0,0,0,1.76,1.194,1.194,0,0,0,1.728,0,1.261,1.261,0,0,0,0-1.76A1.225,1.225,0,0,0,591.454,6235.31Zm-16.595-35a19.328,19.328,0,1,0,18.961,19.33A19.169,19.169,0,0,0,574.859,6200.31Zm0,36.16a16.838,16.838,0,1,1,16.517-16.83A16.694,16.694,0,0,1,574.859,6236.47Zm24.568-19.34a25.413,25.413,0,0,0-7.11-15.29,24.422,24.422,0,0,0-12.074-6.75,24.762,24.762,0,0,0-10.806.01,23.484,23.484,0,0,0-12.037,6.74,26.443,26.443,0,0,0-2.075,2.4h-8.8a1.245,1.245,0,0,0,0,2.49h7.14a25.339,25.339,0,0,0-2.169,4.79h-13.3a1.245,1.245,0,0,0,0,2.49H550.8a25.755,25.755,0,0,0-.607,4.79h-5.4a1.245,1.245,0,0,0,0,2.49h5.444a25.725,25.725,0,0,0,.763,4.79h-7.919a1.245,1.245,0,0,0,0,2.49h8.7a25.114,25.114,0,0,0,5.622,8.86,24.521,24.521,0,0,0,15.018,7.25q1.212,0.12,2.422.12a24.432,24.432,0,0,0,13.475-4.06,1.253,1.253,0,0,0,.357-1.72,1.211,1.211,0,0,0-1.691-.37,22.02,22.02,0,0,1-27.852-2.98,23,23,0,0,1,0-32.06,21.975,21.975,0,0,1,31.46,0,23.1,23.1,0,0,1,2.944,28.36,1.255,1.255,0,0,0,.359,1.72,1.208,1.208,0,0,0,1.691-.36A25.667,25.667,0,0,0,599.427,6217.13ZM582.59,6210l-6.054,6.17a3.718,3.718,0,0,0-3.355,0l-2.709-2.77a1.218,1.218,0,0,0-1.729,0,1.274,1.274,0,0,0,0,1.77l2.71,2.76a3.8,3.8,0,1,0,6.812,0l6.054-6.17a1.261,1.261,0,0,0,0-1.76A1.2,1.2,0,0,0,582.59,6210Zm-7.731,11.02a1.38,1.38,0,1,1,1.353-1.38A1.368,1.368,0,0,1,574.859,6221.02Zm13.068-2.61h-1.132a1.245,1.245,0,0,0,0,2.49h1.132A1.245,1.245,0,0,0,587.927,6218.41Z" transform="translate(-536.969 -6194.53)"/>
</svg>
